<svg width="50" height="50" viewBox="0 0 50 50" fill="none" xmlns="http://www.w3.org/2000/svg">
<path fill-rule="evenodd" clip-rule="evenodd" d="M12.4293 19.4028H39.5597V17.3782H10.3909C10.3909 18.3737 11.1671 19.4028 12.4293 19.4028Z" fill="#7B46D1"/>
<path fill-rule="evenodd" clip-rule="evenodd" d="M26.0078 40.5838H28.0226V21.4177H26.0078V40.5838Z" fill="#7B46D1"/>
<path fill-rule="evenodd" clip-rule="evenodd" d="M21.9797 38.571C21.9797 39.8292 23.0365 40.5857 23.9945 40.5857V21.4177H21.9797V38.571Z" fill="#7B46D1"/>
<path fill-rule="evenodd" clip-rule="evenodd" d="M41.599 21.418H30.0358V42.5989H23.9974C21.8483 42.5989 19.9658 40.8922 19.9658 38.5713V21.418H12.4282C10.1389 21.418 8.40063 19.5613 8.40063 17.3905V11.3481H37.5714C39.7877 11.3481 41.599 13.1594 41.599 15.3757V21.418ZM25.001 0C11.1939 0 0 11.1919 0 24.999C0 38.8081 11.1939 50 25.001 50C38.8061 50 50 38.8081 50 24.999C50 11.1919 38.8061 0 25.001 0Z" fill="#7B46D1"/>
<path fill-rule="evenodd" clip-rule="evenodd" d="M37.5713 13.3613H10.4114V15.3761H39.5802C39.5802 14.2956 38.717 13.3613 37.5713 13.3613Z" fill="#7B46D1"/>
</svg>
